<?xml version="1.0" encoding="UTF-8" standalone="no"?>
<!-- Created with Inkscape (http://www.inkscape.org/) -->

<svg
   width="210mm"
   height="297mm"
   viewBox="0 0 210 297"
   version="1.1"
   id="svg1070"
   inkscape:version="1.1 (c68e22c387, 2021-05-23)"
   sodipodi:docname="fedora-logo.svg"
   xmlns:inkscape="http://www.inkscape.org/namespaces/inkscape"
   xmlns:sodipodi="http://sodipodi.sourceforge.net/DTD/sodipodi-0.dtd"
   xmlns="http://www.w3.org/2000/svg"
   xmlns:svg="http://www.w3.org/2000/svg">
  <sodipodi:namedview
     id="namedview1072"
     pagecolor="#ffffff"
     bordercolor="#cccccc"
     borderopacity="1"
     inkscape:pageshadow="0"
     inkscape:pageopacity="0"
     inkscape:pagecheckerboard="0"
     inkscape:document-units="mm"
     showgrid="false"
     showborder="false"
     inkscape:zoom="1"
     inkscape:cx="2301.5"
     inkscape:cy="-102"
     inkscape:window-width="1920"
     inkscape:window-height="1000"
     inkscape:window-x="0"
     inkscape:window-y="44"
     inkscape:window-maximized="1"
     inkscape:current-layer="g1935"
     showguides="true"
     inkscape:guide-bbox="true" />
  <defs
     id="defs1067">
    <rect
       x="-50.888786"
       y="108.30183"
       width="240.81169"
       height="34.430717"
       id="rect4674" />
    <rect
       x="24.121618"
       y="189.95248"
       width="226.7888"
       height="23.235968"
       id="rect3978" />
    <rect
       x="-89.716743"
       y="488.92484"
       width="306.76917"
       height="60.559666"
       id="rect3960" />
    <rect
       x="99.866714"
       y="220.42418"
       width="2.4878948"
       height="21.913063"
       id="rect3952" />
    <rect
       x="198.27763"
       y="247.36984"
       width="3.7161703"
       height="129.26866"
       id="rect3946" />
    <rect
       x="30.846401"
       y="59.838356"
       width="311.41922"
       height="43.127064"
       id="rect1513" />
    <clipPath
       clipPathUnits="userSpaceOnUse"
       id="clipPath6180">
      <path
         style="display:inline;fill:url(#linearGradient6184);fill-opacity:1;stroke:none;stroke-width:2.11347;stroke-miterlimit:4;stroke-dasharray:2.11347, 2.11347;stroke-dashoffset:0;stroke-opacity:1"
         d="M -1600.6823,628.92908 H 304.95242 V 376.39396 H -1600.6823 Z"
         id="path6182"
         inkscape:connector-curvature="0"
         sodipodi:nodetypes="ccccc"
         inkscape:export-xdpi="96"
         inkscape:export-ydpi="96"
         inkscape:export-filename="/home/duffy/Cáipéisí/Work/Fedora #620 new logo/filing/full-sheet.png" />
    </clipPath>
    <clipPath
       clipPathUnits="userSpaceOnUse"
       id="clipPath7098-7-1-5-5">
      <path
         style="opacity:0.334;fill:url(#pattern7102);fill-opacity:1;stroke:#50a1af;stroke-width:2.50452"
         id="path7100-7-6-3"
         d="m 596.65497,3410.9692 c 0,-44.9558 -36.44197,-81.4006 -81.39654,-81.4006 -44.93353,0 -81.36123,36.4147 -81.39379,81.3432 h -0.002 v 62.9908 h 0.002 c 0.025,10.2009 8.29722,18.4595 18.50462,18.4595 0.0276,0 0.0576,0 0.0877,0 v 0 h 62.82806 v 0 c 44.94627,-0.018 81.36995,-36.4499 81.36995,-81.3929 z"
         inkscape:connector-curvature="0"
         inkscape:export-filename="/home/duffy/Documents/Work/Projects/FedBadges/Badges/junior-editor.png"
         inkscape:export-xdpi="90"
         inkscape:export-ydpi="90" />
    </clipPath>
    <clipPath
       clipPathUnits="userSpaceOnUse"
       id="clipPath7092-0-4-5">
      <path
         style="opacity:0.334;fill:#82bac3;fill-opacity:1;stroke:none"
         id="path7094-2-9-6"
         d="m 596.65497,3410.9692 c 0,-44.9558 -36.44197,-81.4006 -81.39654,-81.4006 -44.93353,0 -81.36123,36.4147 -81.39379,81.3432 h -0.002 v 62.9908 h 0.002 c 0.025,10.2009 8.29722,18.4595 18.50462,18.4595 0.0276,0 0.0576,0 0.0877,0 v 0 h 62.82806 v 0 c 44.94627,-0.018 81.36995,-36.4499 81.36995,-81.3929 z"
         inkscape:connector-curvature="0"
         inkscape:export-filename="/home/duffy/Documents/Work/Projects/FedBadges/Badges/junior-editor.png"
         inkscape:export-xdpi="90"
         inkscape:export-ydpi="90" />
    </clipPath>
    <clipPath
       clipPathUnits="userSpaceOnUse"
       id="clipPath7755">
      <path
         id="path7757"
         style="fill:#3c6eb4;fill-opacity:1;stroke:none;stroke-width:1.03448;stroke-linecap:round;stroke-linejoin:round"
         d="m -29.607204,2.1423587 c -1.698815,0 -3.055138,0.892202 -3.620966,2.2396567 -0.205547,0.4629917 -0.319878,0.9805633 -0.319878,1.5373739 0,2.1361365 1.651389,3.7150188 3.890719,3.7150188 1.435692,0 2.626481,-0.6469317 3.298507,-1.6753499 0.418944,-0.5901864 0.658874,-1.3157012 0.658874,-2.1239014 0,-2.1321763 -1.662859,-3.6927981 -3.907256,-3.6927981 z M -40.533152,2.264832 v 7.1411663 h 0.0093 v 0.1250569 h 1.341519 V 9.4059983 h 0.301792 V 7.4469447 h 1.328589 c 0.148201,0 0.290248,-0.00839 0.429432,-0.020153 1.720046,-0.1056052 2.781742,-1.0705015 2.781742,-2.5709025 0,-1.6016827 -1.193882,-2.5910564 -3.10162,-2.5910564 z m 15.220778,0 2.346627,7.1411663 h 0.05736 l 0.04134,0.1250569 h 1.434023 l 0.04237,-0.1250569 H -21.201 l 1.622123,-4.8358806 1.570964,4.8358806 h 0.134874 l 0.04186,0.1250569 h 1.423686 l 0.04134,-0.1250569 h 0.133324 l 2.336292,-7.1411663 h -1.581298 l -1.662949,5.0601562 -1.631942,-5.0601562 h -1.530654 l -1.683102,5.0193318 -1.611789,-5.0193318 z m 12.334129,0 v 7.1411663 h 0.05891 v 0.1250569 h 5.417757 V 9.4059983 h 0.05271 v -1.326534 h -3.8871 V 6.4268519 h 3.3155599 V 5.141659 H -11.335968 V 3.5908493 h 3.7542947 V 2.264832 Z m 6.8455782,0 v 7.1411663 h 0.1276403 V 9.5310552 H -4.663507 V 9.4059983 h 0.1834515 V 7.4262742 h 1.4469401 c 0.02585,0 0.051665,-0.00288 0.077515,-0.0031 l 1.372526,1.9828248 H -1.366034 L -1.2787,9.5310559 H 0.1656574 L 0.07832373,9.4059981 H 0.19201254 L -1.4058247,7.1156986 c 0.45579768,-0.195638 0.81643005,-0.4842119 1.0619528,-0.8567955 0.26154592,-0.3844184 0.40359278,-0.8561088 0.40359278,-1.403015 0,-1.6016827 -1.19388468,-2.5910564 -3.10162048,-2.5910564 z m 7.4982493,0 V 9.4059983 H 1.5381834 V 9.5310552 H 6.9559399 V 8.4065761 H 6.8949614 V 8.0794643 H 3.0078618 V 6.4268519 h 3.3155573 v -0.011885 h 0.044442 V 5.3106415 H 6.3234191 V 5.141659 H 3.0078618 V 3.5908493 h 3.754292 V 3.4322025 h 0.049609 V 2.3077233 H 6.7621538 V 2.264832 Z m 6.8450619,0 v 7.1411663 h 0.241845 v 0.1250569 h 3.1574286 c 2.342526,0 3.942393,-1.444571 3.942393,-3.6116659 0,-1.6812059 -0.96538,-2.9238184 -2.490801,-3.3982422 C 13.03181,2.5108121 13.0002,2.5029751 12.97004,2.4932421 12.92463,2.4802271 12.881,2.4645991 12.834648,2.4529351 12.412625,2.3319271 11.951646,2.264832 11.454891,2.264832 Z m 11.3140356,0 v 7.1411663 h 0.299723 v 0.1250569 h 3.590994 c 1.85751,0 2.827734,-0.7222638 2.827734,-1.9606037 0,-0.859663 -0.443733,-1.4389003 -1.112076,-1.7213422 -0.05623,-0.029845 -0.114358,-0.057375 -0.174667,-0.082682 0.549476,-0.300872 0.915191,-0.8440115 0.915191,-1.5807819 0,-0.8905269 -0.563816,-1.5297203 -1.628325,-1.7709515 C 23.893903,2.3179352 23.484926,2.264832 23.013873,2.264832 Z m 6.661608,0 2.764689,4.5904174 v 2.5507489 h 0.34675 v 0.1250569 h 1.34152 V 6.9823735 l 2.827734,-4.6746502 h -0.114205 l 0.02582,-0.042891 h -1.62212 L 29.848584,5.4372483 27.941206,2.264832 Z m -5.019331,1.2443685 h 1.642792 c 0.805942,0 1.24437,0.2755424 1.24437,0.8366416 0,0.5610984 -0.438428,0.8469765 -1.24437,0.8469765 h -1.642792 z m -50.774161,0.040824 c 1.275226,0 2.234491,0.9282925 2.234491,2.2851319 0,1.3568394 -0.959265,2.2851316 -2.234491,2.2851316 -1.275223,0 -2.233972,-0.9282922 -2.233972,-2.2851316 0,-1.3568394 0.958749,-2.2851319 2.233972,-2.2851319 z m -9.273334,0.061495 h 1.346687 c 1.009978,0 1.519804,0.4588298 1.519804,1.2443685 0,0.7753368 -0.509826,1.2345495 -1.519804,1.23455 h -1.346687 z m 34.4004825,0 h 1.3466895 c 1.009978,0 1.5198037,0.4588298 1.5198037,1.2443685 0,0.7753368 -0.5098257,1.2448852 -1.5198037,1.2448852 h -1.3466895 z m 14.3438271,0.00982 h 1.5094694 c 1.41805,0 2.346624,0.8467772 2.346624,2.2138185 0,1.3670412 -0.928574,2.2138182 -2.346624,2.2138182 H 9.8637716 Z M 21.166957,6.3963632 h 1.928048 c 0.856951,0 1.316199,0.2858947 1.316199,0.8878009 0,0.612108 -0.459248,0.876949 -1.316199,0.876949 h -1.928048 z m -79.856621,7.2140288 c -7.8769,0 -14.218255,6.340843 -14.218255,14.217738 0,7.876897 6.341355,14.218253 14.218255,14.218253 H 52.868379 c 7.876898,0 14.218256,-6.341356 14.218256,-14.218253 -2e-6,-7.876895 -6.341358,-14.217738 -14.218256,-14.217738 z m 3.907253,4.691703 h 5.29e-4 c 4.884179,2.65e-4 8.841838,3.960175 8.841838,8.844423 -3e-6,4.882348 -3.955463,8.838742 -8.838221,8.841838 h -6.825941 -0.0021 -0.0088 c -1.108678,0 -2.006189,-0.896911 -2.009179,-2.005047 h -0.0016 v -6.844543 h 0.0016 c 0.0032,-4.880938 3.959878,-8.836406 8.841838,-8.836671 z m 1.791623,3.639055 c -1.379119,0 -2.597531,1.038509 -2.76624,2.400888 -0.01201,0.114035 -0.01654,0.196334 -0.01707,0.299722 -0.006,1.840114 0.01336,3.797033 0.0021,5.568654 0,1.068277 -0.798732,1.796272 -1.797822,1.796272 -1.000752,0 -1.807126,-0.799851 -1.807126,-1.797822 0.01675,-1.095267 0.891863,-1.788793 1.914613,-1.819011 h 0.0078 l 1.036629,-0.0093 v -1.471745 l -1.036629,0.0078 c -1.860878,-0.0173 -3.340108,1.43917 -3.394107,3.292306 0,1.801363 1.482447,3.271118 3.279386,3.271118 1.69535,0 3.106235,-1.325192 3.260267,-2.982764 0.0222,-0.564388 0.01138,-1.307931 0.01138,-1.307931 0.0029,-0.306554 -0.0049,-0.195932 -0.0021,-0.804601 l 1.286743,-0.0098 c 0.996323,0.0076 0.985583,-1.494451 -0.01085,-1.473813 l -1.275892,0.0098 c 0,-0.755227 0.01191,-1.506683 0,-2.263426 0.0016,-0.654209 0.621792,-1.232485 1.309481,-1.232485 0.688109,0 1.415417,0.343286 1.415417,1.232485 0,0.127039 -0.0019,0.201483 -0.0088,0.248563 -0.07682,0.412414 0.20442,0.805542 0.619599,0.865063 0.415192,0.05882 0.795541,-0.24057 0.836641,-0.657842 0.02373,-0.164959 0.02479,-0.310335 0.02479,-0.455784 0,-1.568313 -1.402173,-2.706296 -2.887163,-2.706296 z m 35.999351,0.838708 c 1.209747,0 2.447322,0.288513 3.340883,0.852147 l -0.687813,1.690851 c -0.893561,-0.508643 -1.814184,-0.756026 -2.666505,-0.756026 -1.319721,0 -1.828311,0.494803 -1.828311,1.099675 0,1.773375 5.595006,0.54995 5.595006,4.082955 0,1.60841 -1.333534,2.98328 -4.082954,2.98328 -1.525929,0 -3.065788,-0.453768 -3.918106,-1.113626 l 0.756025,-1.676903 c 0.811078,0.591127 2.020761,1.003557 3.175516,1.003557 1.319721,0 1.856219,-0.440335 1.856219,-1.03146 0,-1.80087 -5.595009,-0.563485 -5.595009,-4.137734 0,-1.635903 1.319377,-2.996716 4.055049,-2.996716 z m 14.4756032,0 c 1.69089384,0 3.09337601,0.577446 4.028178,1.663465 L 0.08245652,25.763139 C -0.61864433,25.020797 -1.4297192,24.6769 -2.4057619,24.6769 c -1.8696067,0 -3.1481289,1.251034 -3.1481289,3.079401 0,1.80087 1.2786281,3.079398 3.1207393,3.079398 0.6048719,0 1.168564,-0.109943 1.73219529,-0.41238 V 27.604887 H 1.3335441 v 3.904155 c -1.05852647,0.797333 -2.5154916,1.223698 -3.8902031,1.223698 -3.0243516,0 -5.2513574,-2.075802 -5.2513574,-4.976439 0,-2.900641 2.2265798,-4.976443 5.2921826,-4.976443 z m -38.5464842,0.164849 h 4.371311 c 3.148084,0 5.306652,1.897208 5.306652,4.811594 0,2.914385 -2.158568,4.81159 -5.306652,4.81159 h -4.371311 z m 11.354863,0 h 7.272425 v 1.786972 h -5.059124 v 2.089793 h 4.467945 v 1.732195 h -4.467945 v 2.226736 h 5.237924 v 1.787488 h -7.451225 z m 17.994768,0 h 2.2272519 v 9.623184 h -2.2272519 z m 15.1081211,0 h 1.8422646 l 4.7842033,5.842537 v -5.842537 h 2.199349 v 9.623184 H 10.392938 L 5.595299,26.725354 v 5.842537 H 3.3954341 Z m 13.9123259,0 h 8.385535 v 1.814875 h -3.079398 v 7.808309 H 20.387158 V 24.759582 H 17.30776 Z m 9.581843,0 h 7.271909 v 1.786972 H 29.10239 v 2.089793 h 4.467942 v 1.732195 H 29.10239 v 2.226736 h 5.237922 v 1.787488 h -7.450709 z m 12.248349,0 h 2.199349 l 4.303096,9.623184 h -2.336808 l -0.85266,-2.062406 H 37.9835 l -0.852662,2.062406 h -2.282031 z m 7.506001,0 h 1.842265 l 3.601331,5.979996 3.54707,-5.979996 h 1.828313 l 0.02739,9.623184 h -2.089277 l -0.01394,-5.773806 -2.831867,4.756298 H 51.551675 L 48.733243,26.91759 v 5.650301 H 46.643964 Z M -38.83558,24.77302 v 5.966561 h 2.034501 c 1.910847,0 3.16208,-1.141169 3.16208,-2.98328 0,-1.842112 -1.251233,-2.983281 -3.16208,-2.983281 z m 79.059771,0.357601 -1.526006,3.684013 h 3.052011 z" />
    </clipPath>
    <rect
       x="24.121618"
       y="189.95248"
       width="226.7888"
       height="23.235968"
       id="rect4127" />
    <rect
       x="24.121618"
       y="189.95248"
       width="226.7888"
       height="23.235968"
       id="rect4286" />
  </defs>
  <g
     inkscape:label="Layer 1"
     inkscape:groupmode="layer"
     id="layer1">
    <g
       id="g1935"
       transform="translate(346.71984,135.12424)">
      <text
         xml:space="preserve"
         id="text3944"
         style="font-style:normal;font-variant:normal;font-weight:normal;font-stretch:normal;font-size:7.76111px;font-family:montserrat;-inkscape-font-specification:montserrat;white-space:pre;shape-inside:url(#rect3946);opacity:0.995;fill:#000000;stroke-width:1.505;stroke-linecap:round;stroke-linejoin:round"
         transform="translate(-537.07885,-383.97906)" />
      <text
         xml:space="preserve"
         id="text3950"
         style="font-style:normal;font-variant:normal;font-weight:normal;font-stretch:normal;font-size:7.76111px;font-family:montserrat;-inkscape-font-specification:montserrat;white-space:pre;shape-inside:url(#rect3952);opacity:0.995;fill:#000000;stroke-width:1.505;stroke-linecap:round;stroke-linejoin:round"
         transform="translate(-537.07885,-383.97906)" />
      <g
         id="g3974"
         transform="matrix(0.86861358,0,0,0.86861358,-132.4531,-411.25791)"
         style="fill:#dedede;fill-opacity:1"
         inkscape:export-filename="/home/ashlyn/Code/fedora/fedora-event-banners/assets/fedora-logo.png"
         inkscape:export-xdpi="96"
         inkscape:export-ydpi="96">
        <path
           id="path1648"
           style="fill:#dedede;fill-opacity:1;fill-rule:nonzero;stroke:none;stroke-width:0.323096"
           d="m 417.78833,244.19503 c -8.12468,0 -14.70924,6.58229 -14.71454,14.70512 h -0.003 v 11.39029 h 0.003 c 0.003,1.84408 1.49806,3.33679 3.34309,3.33679 h 0.016 0.003 11.35892 c 8.1256,-0.005 14.70826,-6.58963 14.70826,-14.71454 0,-8.12834 -6.58617,-14.71766 -14.71452,-14.71766 z m 2.98242,6.05578 c 2.47123,0 4.80449,1.89355 4.80449,4.50344 0,0.24205 -9.1e-4,0.48439 -0.0408,0.75894 -0.0683,0.69438 -0.70149,1.19235 -1.39243,1.09448 -0.69092,-0.099 -1.15961,-0.75314 -1.03177,-1.43946 0.0114,-0.0784 0.016,-0.20254 0.016,-0.41396 0,-1.47974 -1.2101,-2.051 -2.35519,-2.051 -1.14443,0 -2.17686,0.96231 -2.1796,2.051 0.0198,1.25934 0,2.50964 0,3.76644 l 2.12313,-0.016 c 1.65825,-0.0343 1.67684,2.4651 0.0188,2.45242 l -2.14196,0.016 c -0.007,1.0129 0.008,0.82897 0.003,1.3391 0,0 0.0183,1.23724 -0.0188,2.17646 -0.25634,2.75842 -2.60413,4.96441 -5.42542,4.96441 -2.99037,0 -5.45681,-2.44651 -5.45681,-5.44424 0.0898,-3.08386 2.55133,-5.50752 5.64809,-5.47874 l 1.72485,-0.0128 v 2.44928 l -1.72485,0.016 h -0.0128 c -1.70201,0.0502 -3.15838,1.20366 -3.18625,3.02631 0,1.66078 1.34213,2.99185 3.00749,2.99185 1.66261,0 2.99182,-1.21094 2.99182,-2.9887 0.0189,-2.94821 -0.0128,-6.20494 -0.003,-9.26715 9.1e-4,-0.17204 0.01,-0.30885 0.0283,-0.49863 0.28075,-2.26717 2.30874,-3.99538 4.6038,-3.99538 z" />
        <g
           id="g1666"
           style="fill:#dedede;fill-opacity:1;stroke-width:0.611975"
           transform="matrix(0.64431286,0,0,0.64431286,385.8519,176.49044)">
          <path
             d="m 96.729167,125.3578 c -3.595373,1.38954 -6.03555,4.80292 -6.045574,9.01632 -0.0105,4.41352 3.082522,10.10943 9.487987,10.15149 4.30838,0.0283 6.46291,-1.58283 7.62603,-2.6768 0.77153,-0.68369 0.8255,-1.87009 0.11854,-2.61974 -0.70838,-0.75106 -1.89761,-0.76906 -2.6268,-0.0385 -0.86818,0.81562 -2.14666,2.02425 -5.772524,1.62173 -1.555755,-0.17216 -3.227339,-1.43528 -3.785318,-2.40173 l 11.879842,-5.05073 c 0.9084,-0.40358 1.32573,-1.45803 0.94121,-2.37421 -2.12076,-4.1731 -5.88103,-7.92444 -11.823393,-5.62783 z m 7.456683,5.48995 -9.885684,4.22249 c -0.705852,-2.63428 2.187448,-5.73353 3.76568,-6.31024 2.366314,-0.86468 4.977204,0.10837 6.120004,2.08775 z"
             style="fill:#dedede;fill-opacity:1;fill-rule:evenodd;stroke:none;stroke-width:0.621694"
             id="path1650"
             sodipodi:nodetypes="ssscccccccsccsc" />
          <path
             id="path1652"
             style="fill:#dedede;fill-opacity:1;stroke-width:18.1847;stroke-linecap:round;stroke-linejoin:round"
             d="m 142.75841,124.51519 a 10.043481,9.9623653 0 0 0 -10.04462,9.9635 10.043481,9.9623653 0 0 0 10.04462,9.96093 10.043481,9.9623653 0 0 0 10.04204,-9.96093 10.043481,9.9623653 0 0 0 -10.04204,-9.9635 z m 0,3.73185 a 6.2822799,6.2315417 0 0 1 6.28239,6.23165 6.2822799,6.2315417 0 0 1 -6.28239,6.23165 6.2822799,6.2315417 0 0 1 -6.2824,-6.23165 6.2822799,6.2315417 0 0 1 6.2824,-6.23165 z" />
          <path
             style="color:#000000;font-style:normal;font-variant:normal;font-weight:normal;font-stretch:normal;font-size:medium;line-height:normal;font-family:sans-serif;font-variant-ligatures:normal;font-variant-position:normal;font-variant-caps:normal;font-variant-numeric:normal;font-variant-alternates:normal;font-feature-settings:normal;text-indent:0;text-align:start;text-decoration:none;text-decoration-line:none;text-decoration-style:solid;text-decoration-color:#000000;letter-spacing:normal;word-spacing:normal;text-transform:none;writing-mode:lr-tb;direction:ltr;text-orientation:mixed;dominant-baseline:auto;baseline-shift:baseline;text-anchor:start;white-space:normal;shape-padding:0;clip-rule:nonzero;display:inline;overflow:visible;visibility:visible;isolation:auto;mix-blend-mode:normal;color-interpolation:sRGB;color-interpolation-filters:linearRGB;solid-color:#000000;solid-opacity:1;vector-effect:none;fill:#dedede;fill-opacity:1;fill-rule:nonzero;stroke:none;stroke-width:3.73014;stroke-linecap:round;stroke-linejoin:round;stroke-miterlimit:4;stroke-dasharray:none;stroke-dashoffset:0;stroke-opacity:1;color-rendering:auto;image-rendering:auto;shape-rendering:auto;text-rendering:auto;enable-background:accumulate"
             d="m 157.27615,124.6433 c -1.59548,0 -1.86142,1.31669 -1.85308,1.84776 v 15.98997 c -0.0436,1.03365 0.81202,1.89464 1.88299,1.89464 1.07096,0 1.92667,-0.86099 1.88297,-1.89464 0,0 0.0284,-5.94671 0,-9.75342 -0.0284,-3.80671 3.06985,-4.63179 4.14789,-4.63179 0.80054,0 1.44015,0.44589 2.0745,0.42206 0.94151,-0.0354 1.71459,-0.6668 1.71459,-1.77397 -0.0283,-1.78855 -2.22269,-2.04245 -3.84053,-2.00941 -1.61785,0.0331 -2.9842,0.52982 -4.16721,1.2363 0,0 -0.24663,-1.3275 -1.84212,-1.3275 z"
             id="path1654"
             inkscape:connector-curvature="0"
             sodipodi:nodetypes="zccsczcsczcz" />
          <g
             style="fill:#dedede;fill-opacity:1;stroke-width:0.996555"
             transform="matrix(1.7992734,0,0,1.7380239,67.446745,-121.99926)"
             id="g1658">
            <path
               style="color:#000000;font-style:normal;font-variant:normal;font-weight:normal;font-stretch:normal;font-size:medium;line-height:normal;font-family:sans-serif;font-variant-ligatures:normal;font-variant-position:normal;font-variant-caps:normal;font-variant-numeric:normal;font-variant-alternates:normal;font-feature-settings:normal;text-indent:0;text-align:start;text-decoration:none;text-decoration-line:none;text-decoration-style:solid;text-decoration-color:#000000;letter-spacing:normal;word-spacing:normal;text-transform:none;writing-mode:lr-tb;direction:ltr;text-orientation:mixed;dominant-baseline:auto;baseline-shift:baseline;text-anchor:start;white-space:normal;shape-padding:0;clip-rule:nonzero;display:inline;overflow:visible;visibility:visible;opacity:1;isolation:auto;mix-blend-mode:normal;color-interpolation:sRGB;color-interpolation-filters:linearRGB;solid-color:#000000;solid-opacity:1;vector-effect:none;fill:#dedede;fill-opacity:1;fill-rule:nonzero;stroke:none;stroke-width:2.10934;stroke-linecap:butt;stroke-linejoin:miter;stroke-miterlimit:4;stroke-dasharray:none;stroke-dashoffset:0;stroke-opacity:1;color-rendering:auto;image-rendering:auto;shape-rendering:auto;text-rendering:auto;enable-background:accumulate"
               d="m 60.088341,141.88715 c -1.393394,0 -2.398273,0.42786 -3.13079,0.97048 -1.110459,0.82303 0.08453,2.54386 1.19499,1.72083 0.505399,-0.37438 0.881229,-0.57413 1.9358,-0.57413 1.312636,0.0273 2.368475,0.53812 2.368475,1.55443 -0.703746,0.461 -3.763534,0.84205 -5.406566,1.8093 -1.643032,0.96724 -1.555977,2.18804 -1.555977,2.98017 0,1.73757 1.769154,2.90976 3.301505,2.90976 1.532352,0 2.182891,-0.33275 3.682046,-1.39626 v 0.30438 c -0.04845,1.45961 2.09629,1.45961 2.047845,0 v -6.23787 c 0.0066,-2.58701 -1.787667,-4.00169 -4.437328,-4.04109 z m 2.439505,5.75572 c -5.12e-4,0.68595 0.0092,0.8837 -0.009,1.56941 -0.004,0.8235 -0.503683,1.20524 -1.026925,1.52032 -0.523236,0.31508 -1.586095,0.59147 -2.201906,0.62167 -0.710308,0.0243 -1.65271,-0.1418 -1.702203,-1.01389 5.12e-4,-0.5264 0.246817,-0.85289 0.65127,-1.21646 0.957742,-0.74385 2.255423,-0.99358 4.288768,-1.48105 z"
               id="path1656"
               inkscape:connector-curvature="0"
               sodipodi:nodetypes="ccccczszcccccscscccss" />
          </g>
          <path
             style="font-style:normal;font-variant:normal;font-weight:bold;font-stretch:normal;font-size:medium;line-height:25px;font-family:Comfortaa;-inkscape-font-specification:Comfortaa;letter-spacing:0px;word-spacing:0px;fill:#dedede;fill-opacity:1;stroke:none;stroke-width:0.939054px;stroke-linecap:butt;stroke-linejoin:miter;stroke-opacity:1"
             d="m 128.56291,116.32562 c -1.15198,-0.0687 -2.00005,1.07152 -1.82333,2.15483 v 8.36367 c -3.63641,-3.04884 -9.55863,-2.83682 -12.91558,0.5392 -3.39481,3.02498 -4.03972,8.51062 -1.57068,12.28835 1.81366,2.85198 5.13136,4.88571 8.55043,4.72423 2.14993,-0.0196 4.2827,-0.9455 5.93583,-2.31651 -0.16962,1.08236 0.66623,2.22553 1.82333,2.15604 1.13581,0.0506 2.01523,-1.07045 1.84088,-2.15482 -0.0197,-8.04418 0.0197,-16.08885 -0.0197,-24.13274 -0.0591,-0.90718 -0.92676,-1.65309 -1.83241,-1.62225 z m -7.9771,12.01866 c 3.28298,-0.0857 6.21551,2.86987 6.15377,6.12271 0.069,3.25587 -2.87355,6.20634 -6.15377,6.12273 -3.11889,0.0827 -5.97784,-2.55935 -6.1372,-5.65665 -0.33212,-3.1928 2.28898,-6.30485 5.49957,-6.55826 0.21182,-0.0207 0.42464,-0.0306 0.63763,-0.0306 z"
             id="path1660"
             inkscape:connector-curvature="0"
             sodipodi:nodetypes="ccccccccccccccccccc" />
          <g
             style="fill:#dedede;fill-opacity:1;stroke-width:1.02221"
             transform="matrix(1.7361841,0,0,1.7118711,84.821887,-122.89238)"
             id="g1664">
            <path
               style="font-style:normal;font-variant:normal;font-weight:bold;font-stretch:normal;font-size:medium;line-height:25px;font-family:Comfortaa;-inkscape-font-specification:Comfortaa;letter-spacing:0px;word-spacing:0px;fill:#dedede;fill-opacity:1;stroke:none;stroke-width:2.16367;stroke-linecap:butt;stroke-linejoin:miter;stroke-miterlimit:4;stroke-dasharray:none;stroke-opacity:1"
               d="m -2.5312666,143.62929 v 11.47421 c -0.003,1.4145 2.12023294,1.4145 2.11718234,0 v -7.65727 H 1.7635608 c 0.5092674,0 0.9446445,-0.37386 0.9446445,-0.9741 0,-0.60024 -0.4664127,-0.9648 -0.9446445,-0.9648 h -2.17764176 v -1.76487 c 0,-1.1293 0.8711995,-2.06801 2.62476896,-2.04625 0.6099425,0.008 0.8261384,0.1567 1.048907,0.29442 1.2161282,0.81695 2.3869012,-1.07509 1.1131122,-1.79886 -0.7812122,-0.48483 -1.5111158,-0.65571 -2.3819993,-0.65571 -2.74449516,0 -4.5059235,2.11423 -4.5219745,4.09323 z"
               id="path1662"
               inkscape:connector-curvature="0"
               sodipodi:nodetypes="ccccczcccscccc" />
          </g>
        </g>
      </g>
      <g
         id="layer3"
         inkscape:label="mobile 1"
         style="display:none">
        <g
           id="g129815"
           transform="matrix(0.35030149,0,0,0.35030149,64.91971,25.960274)"
           style="fill:#ffffff;fill-opacity:1">
          <path
             id="path129795"
             style="fill:#ffffff;fill-opacity:1;fill-rule:nonzero;stroke:none;stroke-width:0.323096"
             d="m 417.78833,244.19503 c -8.12468,0 -14.70924,6.58229 -14.71454,14.70512 h -0.003 v 11.39029 h 0.003 c 0.003,1.84408 1.49806,3.33679 3.34309,3.33679 h 0.016 0.003 11.35892 c 8.1256,-0.005 14.70826,-6.58963 14.70826,-14.71454 0,-8.12834 -6.58617,-14.71766 -14.71452,-14.71766 z m 2.98242,6.05578 c 2.47123,0 4.80449,1.89355 4.80449,4.50344 0,0.24205 -9.1e-4,0.48439 -0.0408,0.75894 -0.0683,0.69438 -0.70149,1.19235 -1.39243,1.09448 -0.69092,-0.099 -1.15961,-0.75314 -1.03177,-1.43946 0.0114,-0.0784 0.016,-0.20254 0.016,-0.41396 0,-1.47974 -1.2101,-2.051 -2.35519,-2.051 -1.14443,0 -2.17686,0.96231 -2.1796,2.051 0.0198,1.25934 0,2.50964 0,3.76644 l 2.12313,-0.016 c 1.65825,-0.0343 1.67684,2.4651 0.0188,2.45242 l -2.14196,0.016 c -0.007,1.0129 0.008,0.82897 0.003,1.3391 0,0 0.0183,1.23724 -0.0188,2.17646 -0.25634,2.75842 -2.60413,4.96441 -5.42542,4.96441 -2.99037,0 -5.45681,-2.44651 -5.45681,-5.44424 0.0898,-3.08386 2.55133,-5.50752 5.64809,-5.47874 l 1.72485,-0.0128 v 2.44928 l -1.72485,0.016 h -0.0128 c -1.70201,0.0502 -3.15838,1.20366 -3.18625,3.02631 0,1.66078 1.34213,2.99185 3.00749,2.99185 1.66261,0 2.99182,-1.21094 2.99182,-2.9887 0.0189,-2.94821 -0.0128,-6.20494 -0.003,-9.26715 9.1e-4,-0.17204 0.01,-0.30885 0.0283,-0.49863 0.28075,-2.26717 2.30874,-3.99538 4.6038,-3.99538 z" />
          <g
             id="g129813"
             style="fill:#ffffff;fill-opacity:1;stroke-width:0.611975"
             transform="matrix(0.64431286,0,0,0.64431286,385.8519,176.49044)">
            <path
               d="m 96.729167,125.3578 c -3.595373,1.38954 -6.03555,4.80292 -6.045574,9.01632 -0.0105,4.41352 3.082522,10.10943 9.487987,10.15149 4.30838,0.0283 6.46291,-1.58283 7.62603,-2.6768 0.77153,-0.68369 0.8255,-1.87009 0.11854,-2.61974 -0.70838,-0.75106 -1.89761,-0.76906 -2.6268,-0.0385 -0.86818,0.81562 -2.14666,2.02425 -5.772524,1.62173 -1.555755,-0.17216 -3.227339,-1.43528 -3.785318,-2.40173 l 11.879842,-5.05073 c 0.9084,-0.40358 1.32573,-1.45803 0.94121,-2.37421 -2.12076,-4.1731 -5.88103,-7.92444 -11.823393,-5.62783 z m 7.456683,5.48995 -9.885684,4.22249 c -0.705852,-2.63428 2.187448,-5.73353 3.76568,-6.31024 2.366314,-0.86468 4.977204,0.10837 6.120004,2.08775 z"
               style="fill:#ffffff;fill-opacity:1;fill-rule:evenodd;stroke:none;stroke-width:0.621694"
               id="path129797"
               sodipodi:nodetypes="ssscccccccsccsc" />
            <path
               id="path129799"
               style="fill:#ffffff;fill-opacity:1;stroke-width:18.1847;stroke-linecap:round;stroke-linejoin:round"
               d="m 142.75841,124.51519 a 10.043481,9.9623653 0 0 0 -10.04462,9.9635 10.043481,9.9623653 0 0 0 10.04462,9.96093 10.043481,9.9623653 0 0 0 10.04204,-9.96093 10.043481,9.9623653 0 0 0 -10.04204,-9.9635 z m 0,3.73185 a 6.2822799,6.2315417 0 0 1 6.28239,6.23165 6.2822799,6.2315417 0 0 1 -6.28239,6.23165 6.2822799,6.2315417 0 0 1 -6.2824,-6.23165 6.2822799,6.2315417 0 0 1 6.2824,-6.23165 z" />
            <path
               style="color:#000000;font-style:normal;font-variant:normal;font-weight:normal;font-stretch:normal;font-size:medium;line-height:normal;font-family:sans-serif;font-variant-ligatures:normal;font-variant-position:normal;font-variant-caps:normal;font-variant-numeric:normal;font-variant-alternates:normal;font-feature-settings:normal;text-indent:0;text-align:start;text-decoration:none;text-decoration-line:none;text-decoration-style:solid;text-decoration-color:#000000;letter-spacing:normal;word-spacing:normal;text-transform:none;writing-mode:lr-tb;direction:ltr;text-orientation:mixed;dominant-baseline:auto;baseline-shift:baseline;text-anchor:start;white-space:normal;shape-padding:0;clip-rule:nonzero;display:inline;overflow:visible;visibility:visible;isolation:auto;mix-blend-mode:normal;color-interpolation:sRGB;color-interpolation-filters:linearRGB;solid-color:#000000;solid-opacity:1;vector-effect:none;fill:#ffffff;fill-opacity:1;fill-rule:nonzero;stroke:none;stroke-width:3.73014;stroke-linecap:round;stroke-linejoin:round;stroke-miterlimit:4;stroke-dasharray:none;stroke-dashoffset:0;stroke-opacity:1;color-rendering:auto;image-rendering:auto;shape-rendering:auto;text-rendering:auto;enable-background:accumulate"
               d="m 157.27615,124.6433 c -1.59548,0 -1.86142,1.31669 -1.85308,1.84776 v 15.98997 c -0.0436,1.03365 0.81202,1.89464 1.88299,1.89464 1.07096,0 1.92667,-0.86099 1.88297,-1.89464 0,0 0.0284,-5.94671 0,-9.75342 -0.0284,-3.80671 3.06985,-4.63179 4.14789,-4.63179 0.80054,0 1.44015,0.44589 2.0745,0.42206 0.94151,-0.0354 1.71459,-0.6668 1.71459,-1.77397 -0.0283,-1.78855 -2.22269,-2.04245 -3.84053,-2.00941 -1.61785,0.0331 -2.9842,0.52982 -4.16721,1.2363 0,0 -0.24663,-1.3275 -1.84212,-1.3275 z"
               id="path129801"
               inkscape:connector-curvature="0"
               sodipodi:nodetypes="zccsczcsczcz" />
            <g
               style="fill:#ffffff;fill-opacity:1;stroke-width:0.996555"
               transform="matrix(1.7992734,0,0,1.7380239,67.446745,-121.99926)"
               id="g129805">
              <path
                 style="color:#000000;font-style:normal;font-variant:normal;font-weight:normal;font-stretch:normal;font-size:medium;line-height:normal;font-family:sans-serif;font-variant-ligatures:normal;font-variant-position:normal;font-variant-caps:normal;font-variant-numeric:normal;font-variant-alternates:normal;font-feature-settings:normal;text-indent:0;text-align:start;text-decoration:none;text-decoration-line:none;text-decoration-style:solid;text-decoration-color:#000000;letter-spacing:normal;word-spacing:normal;text-transform:none;writing-mode:lr-tb;direction:ltr;text-orientation:mixed;dominant-baseline:auto;baseline-shift:baseline;text-anchor:start;white-space:normal;shape-padding:0;clip-rule:nonzero;display:inline;overflow:visible;visibility:visible;opacity:1;isolation:auto;mix-blend-mode:normal;color-interpolation:sRGB;color-interpolation-filters:linearRGB;solid-color:#000000;solid-opacity:1;vector-effect:none;fill:#ffffff;fill-opacity:1;fill-rule:nonzero;stroke:none;stroke-width:2.10934;stroke-linecap:butt;stroke-linejoin:miter;stroke-miterlimit:4;stroke-dasharray:none;stroke-dashoffset:0;stroke-opacity:1;color-rendering:auto;image-rendering:auto;shape-rendering:auto;text-rendering:auto;enable-background:accumulate"
                 d="m 60.088341,141.88715 c -1.393394,0 -2.398273,0.42786 -3.13079,0.97048 -1.110459,0.82303 0.08453,2.54386 1.19499,1.72083 0.505399,-0.37438 0.881229,-0.57413 1.9358,-0.57413 1.312636,0.0273 2.368475,0.53812 2.368475,1.55443 -0.703746,0.461 -3.763534,0.84205 -5.406566,1.8093 -1.643032,0.96724 -1.555977,2.18804 -1.555977,2.98017 0,1.73757 1.769154,2.90976 3.301505,2.90976 1.532352,0 2.182891,-0.33275 3.682046,-1.39626 v 0.30438 c -0.04845,1.45961 2.09629,1.45961 2.047845,0 v -6.23787 c 0.0066,-2.58701 -1.787667,-4.00169 -4.437328,-4.04109 z m 2.439505,5.75572 c -5.12e-4,0.68595 0.0092,0.8837 -0.009,1.56941 -0.004,0.8235 -0.503683,1.20524 -1.026925,1.52032 -0.523236,0.31508 -1.586095,0.59147 -2.201906,0.62167 -0.710308,0.0243 -1.65271,-0.1418 -1.702203,-1.01389 5.12e-4,-0.5264 0.246817,-0.85289 0.65127,-1.21646 0.957742,-0.74385 2.255423,-0.99358 4.288768,-1.48105 z"
                 id="path129803"
                 inkscape:connector-curvature="0"
                 sodipodi:nodetypes="ccccczszcccccscscccss" />
            </g>
            <path
               style="font-style:normal;font-variant:normal;font-weight:bold;font-stretch:normal;font-size:medium;line-height:25px;font-family:Comfortaa;-inkscape-font-specification:Comfortaa;letter-spacing:0px;word-spacing:0px;fill:#ffffff;fill-opacity:1;stroke:none;stroke-width:0.939054px;stroke-linecap:butt;stroke-linejoin:miter;stroke-opacity:1"
               d="m 128.56291,116.32562 c -1.15198,-0.0687 -2.00005,1.07152 -1.82333,2.15483 v 8.36367 c -3.63641,-3.04884 -9.55863,-2.83682 -12.91558,0.5392 -3.39481,3.02498 -4.03972,8.51062 -1.57068,12.28835 1.81366,2.85198 5.13136,4.88571 8.55043,4.72423 2.14993,-0.0196 4.2827,-0.9455 5.93583,-2.31651 -0.16962,1.08236 0.66623,2.22553 1.82333,2.15604 1.13581,0.0506 2.01523,-1.07045 1.84088,-2.15482 -0.0197,-8.04418 0.0197,-16.08885 -0.0197,-24.13274 -0.0591,-0.90718 -0.92676,-1.65309 -1.83241,-1.62225 z m -7.9771,12.01866 c 3.28298,-0.0857 6.21551,2.86987 6.15377,6.12271 0.069,3.25587 -2.87355,6.20634 -6.15377,6.12273 -3.11889,0.0827 -5.97784,-2.55935 -6.1372,-5.65665 -0.33212,-3.1928 2.28898,-6.30485 5.49957,-6.55826 0.21182,-0.0207 0.42464,-0.0306 0.63763,-0.0306 z"
               id="path129807"
               inkscape:connector-curvature="0"
               sodipodi:nodetypes="ccccccccccccccccccc" />
            <g
               style="fill:#ffffff;fill-opacity:1;stroke-width:1.02221"
               transform="matrix(1.7361841,0,0,1.7118711,84.821887,-122.89238)"
               id="g129811">
              <path
                 style="font-style:normal;font-variant:normal;font-weight:bold;font-stretch:normal;font-size:medium;line-height:25px;font-family:Comfortaa;-inkscape-font-specification:Comfortaa;letter-spacing:0px;word-spacing:0px;fill:#ffffff;fill-opacity:1;stroke:none;stroke-width:2.16367;stroke-linecap:butt;stroke-linejoin:miter;stroke-miterlimit:4;stroke-dasharray:none;stroke-opacity:1"
                 d="m -2.5312666,143.62929 v 11.47421 c -0.003,1.4145 2.12023294,1.4145 2.11718234,0 v -7.65727 H 1.7635608 c 0.5092674,0 0.9446445,-0.37386 0.9446445,-0.9741 0,-0.60024 -0.4664127,-0.9648 -0.9446445,-0.9648 h -2.17764176 v -1.76487 c 0,-1.1293 0.8711995,-2.06801 2.62476896,-2.04625 0.6099425,0.008 0.8261384,0.1567 1.048907,0.29442 1.2161282,0.81695 2.3869012,-1.07509 1.1131122,-1.79886 -0.7812122,-0.48483 -1.5111158,-0.65571 -2.3819993,-0.65571 -2.74449516,0 -4.5059235,2.11423 -4.5219745,4.09323 z"
                 id="path129809"
                 inkscape:connector-curvature="0"
                 sodipodi:nodetypes="ccccczcccscccc" />
            </g>
          </g>
        </g>
      </g>
    </g>
  </g>
</svg>
