<svg viewBox="0 0 210 297" xmlns="http://www.w3.org/2000/svg">
  <path d="M92.392 119.618c12.654 0 17.85 7.795 17.85 7.795s6.262-7.109 14.958-7.109c3.741 0 10.888 1.26 10.888 6.979 0 4.647-2.441 6.95-2.441 6.95s12.99 1.46 12.99 11.699c0 7.06-7.336 10.706-7.336 10.706s4.502 3.842 4.502 8.77c0 9.792-10.325 11.525-17.735 11.525-18.467 0-26.1-5.192-26.1-5.192s-4.736 4.93-16.128 4.93c-8.856 0-19.297-7.12-19.297-17.987 0-5.096 5.945-8.837 5.945-8.837s-5.784-2.539-5.784-8.678c0-11.385 9.889-9.725 9.889-9.725s4.745-11.826 17.8-11.826z" fill="#fff" stroke="#3c6eb4" stroke-width="1.305"/>
  <path d="M83.445 146.83s-3.22.39-3.22 2.426c0 1.677 1.552 2.665 1.552 2.665s-4.294.196-4.294 2.762c0 3.13 3.444 3.491 3.444 3.491s-1.216 1.107-1.216 2.526c0 2.698 4.003 4.527 7.782 4.527 3.076 0 6.621-2.023 6.621-2.023s5.384 3.518 10.869 3.518c7.894 0 11.949-3.985 11.949-3.985s2.817 1.36 6.675 1.36c4.267 0 6.93-3.077 6.93-5.15 0-3.601-4.564-4.654-4.564-4.654s2.52-1.215 2.52-3.751c0-2.424-3.668-2.914-3.668-2.914" fill="#fafafa"/>
  <path d="M87.015 154.915c-2.746-2.374-3.582-7.636-3.582-7.636a14.82 14.82 0 01-.214-2.584c0-8.808 2.871-13.989 8.54-14.096 2.53-.048 5.88 1.62 5.838 5.928-.018 1.823-1.155 3.889-1.573 4.208 0 0 2.319 1.874 7.182 1.874 7.567 0 17.446-10.068 19.996-10.105.828-.012 1.652.261 1.652 1.317 0 2.282-3.684 4.51-3.684 4.51s2.731.217 2.731 1.55c0 .719-.633 1.442-1.351 2.076 0 0 .756.186 2.954-1.076 2.673-1.533 3.721-1.494 5.14-1.538 1.397-.043-1.614 1.463-.886 1.569.584.085 2.184 1.345 2.09 2.166-.035.314-2.627.139-4.59 1.265-1.385.796-2.072 2.136-2.422 3.268-.854 4.221-2.782 6.953-4.908 8.72-2.497-.116-8.283 3.235-8.283 3.235-1.935-.589-2.747-.866-4.722-.784-2.43.102-5.131 1.7-5.131 1.7s-3.012.276-5.845-1.128c-.187.009-.368.006-.545-.008-3.33-.26-5.131-4.401-8.387-4.431" fill="#dedede"/>
  <path d="M87.015 154.915c-2.746-2.374-3.582-7.636-3.582-7.636a14.82 14.82 0 01-.214-2.584c0-8.808 2.871-13.989 8.54-14.096 2.53-.048 5.88 1.62 5.838 5.928-.018 1.823-1.155 3.889-1.573 4.208 0 0 2.319 1.874 7.182 1.874 7.567 0 17.446-10.068 19.996-10.105.828-.012 1.652.261 1.652 1.317 0 2.282-3.684 4.51-3.684 4.51s2.731.217 2.731 1.55c0 .719-.633 1.442-1.351 2.076 0 0 .756.186 2.954-1.076 2.673-1.533 3.721-1.494 5.14-1.538 1.397-.043-1.614 1.463-.886 1.569.584.085 2.184 1.345 2.09 2.166-.035.314-2.627.139-4.59 1.265-1.385.796-2.072 2.136-2.422 3.268-.854 4.221-2.502 6.812-4.627 8.579" fill="#dedede" stroke="#8c8c8c" stroke-width=".8860999999999999" stroke-linecap="round"/>
  <path d="M94.125 141.838l1.945-.885s2.682 1.636 6.232 1.636c3.78 0 10.918-3.846 10.918-3.846s-5.148 5.526-10.763 5.526c-4.495 0-8.332-2.431-8.332-2.431z" fill="#fff"/>
  <path d="M83.334 147.029s-3.065.61-3.065 2.713c0 1.788 2.193 2.223 2.193 2.223s-4.98.152-4.98 2.718c0 3.13 3.445 3.491 3.445 3.491s-1.216 1.107-1.216 2.526c0 2.698 4.003 4.527 7.782 4.527 3.076 0 6.621-2.023 6.621-2.023s5.384 3.518 10.869 3.518c7.894 0 11.949-3.985 11.949-3.985s2.817 1.36 6.675 1.36c4.267 0 6.93-3.077 6.93-5.15 0-3.601-4.564-4.654-4.564-4.654s2.52-1.215 2.52-3.751c0-2.424-3.7-2.602-3.7-2.602s2.035.464 2.035 2.75c0 1.998-3.125 3.863-3.125 3.863s4.355 1.489 4.355 4.648c0 1.825-2.734 3.486-4.398 3.486-3.908 0-6.978-1.135-6.978-1.135s-4.48 3.385-11.645 3.385c-5.391 0-10.937-2.757-10.937-2.757s-3.16 1.282-6.547 1.282c-1.574 0-5.784-.836-5.784-2.927 0-1.829 1.062-3.111 1.062-3.111s-3.202-.253-3.202-2.373c0-1.643 4.297-2.602 4.297-2.602s-2.103-1.513-2.103-3.258c0-.976.841-1.676 1.511-2.162z" fill="#8faed9"/>
  <path d="M83.445 146.83s-3.22.39-3.22 2.426c0 1.677 1.552 2.665 1.552 2.665s-4.294.196-4.294 2.762c0 3.13 3.444 3.491 3.444 3.491s-1.216 1.107-1.216 2.526c0 2.698 4.003 4.527 7.782 4.527 3.076 0 6.621-2.023 6.621-2.023s5.384 3.518 10.869 3.518c7.894 0 11.949-3.985 11.949-3.985s2.817 1.36 6.675 1.36c4.267 0 6.93-3.077 6.93-5.15 0-3.601-4.564-4.654-4.564-4.654s2.52-1.215 2.52-3.751c0-2.424-3.668-2.914-3.668-2.914" fill="none" stroke="#3c6eb4" stroke-width=".88608624" stroke-linecap="round"/>
  <path d="M93.119 141.96c3.595-.284 4.495-3.555 4.413-6.452-.092-3.228-3.368-4.964-5.99-4.885-5.668.171-8.353 5.289-8.353 14.097 0 5.09 2.159 8.42 3.782 10.205" fill="none" stroke="#8c8c8c" stroke-width=".88608624" stroke-linecap="round"/>
  <path d="M83.565 155.89s1.1-.92 3.418-.92c3.637 0 5.21 4.58 8.96 4.4.527.42 3.793 1.391 5.837 1.062" fill="none" stroke="#3c6eb4" stroke-width=".88608624" stroke-linecap="round"/>
  <path d="M125.451 141.445a10.17 10.17 0 012.092-1.124c.479.101.825.22 1.282.509-.573.594-.586 1.462-1 2.8-.481.21-1.687.996-2.168 1.43l.86-3.171c-.242-.27-.574-.444-1.066-.444z" fill="#fff"/>
  <path d="M122.549 141.95s.352.468 2.55-.794c2.673-1.534 4.096-1.745 5.515-1.788 1.397-.044-1.614 1.463-.886 1.568.584.085 2.184 1.345 2.09 2.166-.035.315-2.628.14-4.59 1.265-1.385.796-2.001 1.876-2.37 3.016-1.249 5.016-3.067 7.417-4.518 8.699" fill="none" stroke="#8c8c8c" stroke-width=".88608624" stroke-linecap="round"/>
  <path d="M96.013 140.78s2.3 1.854 7.163 1.854c7.567 0 17.446-10.068 19.996-10.105.828-.012 1.652.261 1.652 1.316 0 2.283-3.684 4.51-3.684 4.51s2.731.218 2.731 1.55c0 1.756-3.773 3.535-3.773 3.535s2.448.56 2.448 1.763c0 2.513-3.22 3.019-3.22 3.019" fill="none" stroke="#8c8c8c" stroke-width=".88608624" stroke-linecap="round"/>
  <path d="M92.214 137.215s.182 1.23 1.35 1.23c1.168 0 1.499-1.216 1.499-1.216s-.537.427-1.492.427-1.357-.441-1.357-.441z" fill="#8c8c8c"/>
  <path d="M100.74 161.05s3.775-2.159 6.058-2.261c3.459-.155 6.63 1.533 6.63 1.533" fill="none" stroke="#3c6eb4" stroke-width=".88608624" stroke-linecap="round"/>
  <path d="M96.828 139.69c.206-.575.526-1.123.697-2.103.768.86.96 1.154 1.812 1.26.146.023.17.12.11.212-.864.966-1.937.78-2.62.631zM127.047 140.312c1.9-.751 2.703-1.024 3.937-.941l-1.313 1.437c1.067.34 1.949.94 2.188 2.438-2.678-.199-2.891.351-4.797 1.052.42-1.111.51-2.117 1.567-3.433zM97.44 135.296s-1.838-2.715-4.553-2.697c-7.935.053-9.593 9.389-8.664 18.079 0 0-1.016-4.553-1.016-6.454 0-1.9.62-13.79 8.53-13.79 5.218 0 5.703 4.862 5.703 4.862z" fill="#8c8c8c"/>
  <path d="M96.903 134.652s-1.65-1.661-4.475-1.642c-4.833.032-8.753 7.103-8.395 14.969 0 0-.194-1.267-.194-3.102 0-2.77.663-13.206 8.182-13.206 4.073 0 4.882 2.98 4.882 2.98zM116.845 136.931s2.298-1.69 2.873-2c.574-.31 1.37-.365 1.37.961 0 2.299-2.261 3.603-2.261 3.603s2.324-.551 2.416.42c.217 2.295-3.028 4-3.028 4s3.425.287 3.47 1.304c.088 2.431-2.465 2.586-2.465 2.586s.861-.928.895-1.9c.045-1.262-3.381-1.062-3.381-1.062s2.714-2.542 2.763-3.69c.066-1.571-2.957-.397-2.957-.397s2.769-3.051 2.725-4.2c-.045-1.15-2.42.375-2.42.375z" fill="#fff"/>
  <path d="M116.77 136.866s5.359-4.302 6.547-4.302c1.187 0 1.707.897 1.54 1.306.188 2.375-4.125 4.625-4.125 4.625s3.063.25 3.126 1.063c-.137 2.537-4.064 3.813-4.064 3.813s2.773.733 2.74 1.802c-.075 2.428-3.328 2.632-3.328 2.632s2.182-.54 2.229-2.432c.037-1.505-3.464-1.303-3.464-1.303s2.998-2.035 3.05-3.95c.038-1.359-2.865-.331-2.865-.331s2.737-1.804 2.737-4.312c0-1.549-4.124 1.389-4.124 1.389z" fill="#8c8c8c"/>
  <g word-spacing="0">
    <g aria-label="nest" style="line-height:1.25" font-size="medium" font-family="Comfortaa" fill="#8faed9" stroke="#8faed9" stroke-width="13.229" color="#000" font-weight="700" letter-spacing="-.043">
      <path d="M98.281 153.636a.597.597 0 01-.423-.16.597.597 0 01-.16-.424v-2.815c0-.435-.08-.79-.24-1.064a1.471 1.471 0 00-.653-.607 2 2 0 00-.927-.206c-.32 0-.61.065-.87.194-.26.13-.465.306-.618.527a1.247 1.247 0 00-.229.744h-.72c0-.48.113-.908.342-1.282.237-.381.557-.683.962-.904a2.79 2.79 0 011.362-.332c.526 0 .995.114 1.407.343.42.222.748.55.985.985.244.435.366.969.366 1.602v2.815a.575.575 0 01-.172.424.558.558 0 01-.412.16zm-4.704 0a.597.597 0 01-.423-.16.597.597 0 01-.16-.424v-5.104c0-.176.053-.317.16-.424a.597.597 0 01.423-.16c.176 0 .317.054.424.16.107.107.16.248.16.424v5.104a.597.597 0 01-.16.424.572.572 0 01-.424.16z" style="line-height:1.25;-inkscape-font-specification:'Comfortaa Bold';font-variant-ligatures:normal;font-variant-position:normal;font-variant-caps:normal;font-variant-numeric:normal;font-variant-alternates:normal;font-feature-settings:normal;text-indent:0;text-align:start;text-decoration-line:none;text-decoration-style:solid;text-decoration-color:#000;text-transform:none;text-orientation:mixed;white-space:normal;shape-padding:0;isolation:auto;mix-blend-mode:normal;solid-color:#000;solid-opacity:1" overflow="visible" stroke-width="1.56155116"/>
      <path style="line-height:1.25;-inkscape-font-specification:'Comfortaa Bold';font-variant-ligatures:normal;font-variant-position:normal;font-variant-caps:normal;font-variant-numeric:normal;font-variant-alternates:normal;font-feature-settings:normal;text-indent:0;text-align:start;text-decoration-line:none;text-decoration-style:solid;text-decoration-color:#000;text-transform:none;text-orientation:mixed;white-space:normal;shape-padding:0;isolation:auto;mix-blend-mode:normal;solid-color:#000;solid-opacity:1" d="M113.074 144.185c-.42 0-.925.181-1.252.508-.327.327-.508.832-.508 1.252v.591a1.724 1.724 0 00-.474.27 3.79 3.79 0 00-.652-.346 4.681 4.681 0 00-1.792-.33c-.517 0-1.029.09-1.513.263a3.25 3.25 0 00-1.375.901l-.017.02a3.664 3.664 0 00-.747-.606c-.636-.396-1.386-.577-2.156-.577a4.33 4.33 0 00-2.2.574 4.09 4.09 0 00-1.113.944 3.577 3.577 0 00-1.196-1.043 4.081 4.081 0 00-1.972-.487c-.551 0-1.094.11-1.594.32a1.923 1.923 0 00-.936-.263c-.42 0-.907.175-1.234.48l-.015.014-.014.014c-.337.337-.508.847-.508 1.264v5.104c0 .42.175.908.48 1.234l.027.03.03.028c.327.305.815.48 1.234.48.417 0 1.067-.228 1.47-.565.364-.304.566-.535.738-1.216.145-.204.324-.117.374.01.19.558.483.945.886 1.267.348.277.816.504 1.236.504.42 0 .925-.181 1.252-.508.125-.125.232-.28.316-.446.197.163.41.309.634.435l.01.006.01.005c.681.367 1.456.542 2.256.542a4.6 4.6 0 001.477-.256 4.391 4.391 0 001.244-.632c.326.24.695.425 1.093.573l.012.004.011.004a5.676 5.676 0 001.88.307c.662 0 1.283-.098 1.848-.36.523-.241.997-.61 1.317-1.1.046-.068.087-.138.127-.209.26.459.628.858 1.07 1.146l.01.005.008.006c.494.309 1.08.467 1.66.467h.206c.406 0 .887-.136 1.248-.444.359-.303.615-.848.615-1.317 0-.394-.152-.866-.45-1.2-.286-.321-.792-.56-1.23-.56h-.07v-1.565c.338-.042.704-.16.979-.414.317-.292.531-.793.531-1.216 0-.41-.19-.925-.531-1.24-.275-.254-.64-.371-.98-.413v-.499c0-.42-.181-.925-.508-1.252-.327-.327-.832-.508-1.252-.508z" overflow="visible" stroke-width="1.5615"/>
      <path d="M102.76 153.67c-.634 0-1.199-.133-1.694-.4a3.079 3.079 0 01-1.156-1.122c-.275-.48-.412-1.03-.412-1.648 0-.626.13-1.175.389-1.648.267-.48.633-.854 1.098-1.122.466-.274 1-.412 1.603-.412.595 0 1.106.134 1.533.401.428.26.752.622.973 1.087.229.458.343.988.343 1.591 0 .145-.05.267-.148.366a.535.535 0 01-.378.138h-4.612v-.916h4.578l-.47.32a2.41 2.41 0 00-.228-1.018 1.73 1.73 0 00-.618-.721c-.268-.176-.592-.263-.973-.263-.435 0-.81.095-1.122.286-.305.19-.538.454-.698.79-.16.328-.24.701-.24 1.121 0 .42.095.794.286 1.122.19.328.454.587.79.778.335.19.72.286 1.155.286.237 0 .477-.042.721-.126.252-.091.454-.194.607-.309a.608.608 0 01.366-.126.487.487 0 01.355.115c.13.114.198.24.206.377.008.138-.053.256-.183.355-.26.206-.584.374-.973.504a3.41 3.41 0 01-1.099.194zM108.476 153.67c-.534 0-1.03-.08-1.487-.24-.45-.168-.802-.378-1.053-.63a.508.508 0 01-.15-.412c.024-.16.1-.29.23-.389.152-.122.301-.171.446-.148.153.015.282.08.39.194.129.145.335.282.617.412.29.122.61.183.962.183.442 0 .778-.072 1.007-.217.236-.145.358-.332.366-.561.008-.229-.103-.427-.332-.595-.221-.168-.63-.305-1.225-.412-.77-.153-1.33-.382-1.682-.687a1.444 1.444 0 01-.515-1.121c0-.39.115-.71.343-.962.23-.26.523-.45.882-.572.358-.13.732-.195 1.121-.195.504 0 .95.08 1.34.24.388.161.697.382.926.665a.535.535 0 01.15.389.44.44 0 01-.195.332.561.561 0 01-.435.08.82.82 0 01-.424-.206 1.56 1.56 0 00-.618-.378 2.59 2.59 0 00-.767-.103c-.335 0-.621.057-.858.172-.229.114-.343.282-.343.503a.72.72 0 00.103.378c.076.107.22.206.435.298.213.083.526.167.938.251.572.115 1.022.26 1.35.435.336.176.577.382.722.618.145.23.217.496.217.801 0 .351-.095.668-.286.95-.183.283-.458.508-.824.676-.359.167-.809.251-1.35.251zM114.516 153.625c-.381 0-.725-.096-1.03-.287a2.092 2.092 0 01-.721-.8 2.409 2.409 0 01-.263-1.134v-5.459c0-.168.053-.305.16-.412a.558.558 0 01.412-.16c.168 0 .305.053.412.16.107.107.16.244.16.412v5.46c0 .304.084.56.252.766a.77.77 0 00.618.31h.39c.137 0 .251.052.343.16.099.106.148.243.148.411a.51.51 0 01-.194.412.704.704 0 01-.48.16zm-2.54-5.048a.551.551 0 01-.39-.137.448.448 0 01-.149-.343c0-.153.05-.275.15-.367a.551.551 0 01.388-.137h2.644c.16 0 .29.046.39.137.098.092.148.214.148.367 0 .137-.05.251-.149.343a.551.551 0 01-.389.137z" style="line-height:1.25;-inkscape-font-specification:'Comfortaa Bold';font-variant-ligatures:normal;font-variant-position:normal;font-variant-caps:normal;font-variant-numeric:normal;font-variant-alternates:normal;font-feature-settings:normal;text-indent:0;text-align:start;text-decoration-line:none;text-decoration-style:solid;text-decoration-color:#000;text-transform:none;text-orientation:mixed;white-space:normal;shape-padding:0;isolation:auto;mix-blend-mode:normal;solid-color:#000;solid-opacity:1" overflow="visible" stroke-width="1.56155116"/>
    </g>
    <g aria-label="nest" style="line-height:1.25" font-size="medium" font-family="Comfortaa" fill="#fff" stroke-width="7.938" color="#000" font-weight="700" letter-spacing="-.043">
      <path d="M98.281 153.636a.597.597 0 01-.423-.16.597.597 0 01-.16-.424v-2.815c0-.435-.08-.79-.24-1.064a1.471 1.471 0 00-.653-.607 2 2 0 00-.927-.206c-.32 0-.61.065-.87.194-.26.13-.465.306-.618.527a1.247 1.247 0 00-.229.744h-.72c0-.48.113-.908.342-1.282.237-.381.557-.683.962-.904a2.79 2.79 0 011.362-.332c.526 0 .995.114 1.407.343.42.222.748.55.985.985.244.435.366.969.366 1.602v2.815a.575.575 0 01-.172.424.558.558 0 01-.412.16zm-4.704 0a.597.597 0 01-.423-.16.597.597 0 01-.16-.424v-5.104c0-.176.053-.317.16-.424a.597.597 0 01.423-.16c.176 0 .317.054.424.16.107.107.16.248.16.424v5.104a.597.597 0 01-.16.424.572.572 0 01-.424.16z" style="line-height:1.25;-inkscape-font-specification:'Comfortaa Bold';font-variant-ligatures:normal;font-variant-position:normal;font-variant-caps:normal;font-variant-numeric:normal;font-variant-alternates:normal;font-feature-settings:normal;text-indent:0;text-align:start;text-decoration-line:none;text-decoration-style:solid;text-decoration-color:#000;text-transform:none;text-orientation:mixed;white-space:normal;shape-padding:0;isolation:auto;mix-blend-mode:normal;solid-color:#000;solid-opacity:1" overflow="visible"/>
      <path style="line-height:1.25;-inkscape-font-specification:'Comfortaa Bold';font-variant-ligatures:normal;font-variant-position:normal;font-variant-caps:normal;font-variant-numeric:normal;font-variant-alternates:normal;font-feature-settings:normal;text-indent:0;text-align:start;text-decoration-line:none;text-decoration-style:solid;text-decoration-color:#000;text-transform:none;text-orientation:mixed;white-space:normal;shape-padding:0;isolation:auto;mix-blend-mode:normal;solid-color:#000;solid-opacity:1" d="M113.074 144.185c-.42 0-.925.181-1.252.508-.327.327-.508.832-.508 1.252v.591a1.724 1.724 0 00-.474.27 3.79 3.79 0 00-.652-.346 4.681 4.681 0 00-1.792-.33c-.517 0-1.029.09-1.513.263a3.25 3.25 0 00-1.375.901l-.017.02a3.664 3.664 0 00-.747-.606c-.636-.396-1.386-.577-2.156-.577a4.33 4.33 0 00-2.2.574 4.09 4.09 0 00-1.113.944 3.577 3.577 0 00-1.196-1.043 4.081 4.081 0 00-1.972-.487c-.551 0-1.094.11-1.594.32a1.923 1.923 0 00-.936-.263c-.42 0-.907.175-1.234.48l-.015.014-.014.014c-.337.337-.508.847-.508 1.264v5.104c0 .42.175.908.48 1.234l.027.03.03.028c.327.305.815.48 1.234.48.417 0 1.067-.228 1.47-.565.364-.304.566-.535.738-1.216.145-.204.324-.117.374.01.19.558.483.945.886 1.267.348.277.816.504 1.236.504.42 0 .925-.181 1.252-.508.125-.125.232-.28.316-.446.197.163.41.309.634.435l.01.006.01.005c.681.367 1.456.542 2.256.542a4.6 4.6 0 001.477-.256 4.391 4.391 0 001.244-.632c.326.24.695.425 1.093.573l.012.004.011.004a5.676 5.676 0 001.88.307c.662 0 1.283-.098 1.848-.36.523-.241.997-.61 1.317-1.1.046-.068.087-.138.127-.209.26.459.628.858 1.07 1.146l.01.005.008.006c.494.309 1.08.467 1.66.467h.206c.406 0 .887-.136 1.248-.444.359-.303.615-.848.615-1.317 0-.394-.152-.866-.45-1.2-.286-.321-.792-.56-1.23-.56h-.07v-1.565c.338-.042.704-.16.979-.414.317-.292.531-.793.531-1.216 0-.41-.19-.925-.531-1.24-.275-.254-.64-.371-.98-.413v-.499c0-.42-.181-.925-.508-1.252-.327-.327-.832-.508-1.252-.508z" overflow="visible"/>
      <path d="M102.76 153.67c-.634 0-1.199-.133-1.694-.4a3.079 3.079 0 01-1.156-1.122c-.275-.48-.412-1.03-.412-1.648 0-.626.13-1.175.389-1.648.267-.48.633-.854 1.098-1.122.466-.274 1-.412 1.603-.412.595 0 1.106.134 1.533.401.428.26.752.622.973 1.087.229.458.343.988.343 1.591 0 .145-.05.267-.148.366a.535.535 0 01-.378.138h-4.612v-.916h4.578l-.47.32a2.41 2.41 0 00-.228-1.018 1.73 1.73 0 00-.618-.721c-.268-.176-.592-.263-.973-.263-.435 0-.81.095-1.122.286-.305.19-.538.454-.698.79-.16.328-.24.701-.24 1.121 0 .42.095.794.286 1.122.19.328.454.587.79.778.335.19.72.286 1.155.286.237 0 .477-.042.721-.126.252-.091.454-.194.607-.309a.608.608 0 01.366-.126.487.487 0 01.355.115c.13.114.198.24.206.377.008.138-.053.256-.183.355-.26.206-.584.374-.973.504a3.41 3.41 0 01-1.099.194zM108.476 153.67c-.534 0-1.03-.08-1.487-.24-.45-.168-.802-.378-1.053-.63a.508.508 0 01-.15-.412c.024-.16.1-.29.23-.389.152-.122.301-.171.446-.148.153.015.282.08.39.194.129.145.335.282.617.412.29.122.61.183.962.183.442 0 .778-.072 1.007-.217.236-.145.358-.332.366-.561.008-.229-.103-.427-.332-.595-.221-.168-.63-.305-1.225-.412-.77-.153-1.33-.382-1.682-.687a1.444 1.444 0 01-.515-1.121c0-.39.115-.71.343-.962.23-.26.523-.45.882-.572.358-.13.732-.195 1.121-.195.504 0 .95.08 1.34.24.388.161.697.382.926.665a.535.535 0 01.15.389.44.44 0 01-.195.332.561.561 0 01-.435.08.82.82 0 01-.424-.206 1.56 1.56 0 00-.618-.378 2.59 2.59 0 00-.767-.103c-.335 0-.621.057-.858.172-.229.114-.343.282-.343.503a.72.72 0 00.103.378c.076.107.22.206.435.298.213.083.526.167.938.251.572.115 1.022.26 1.35.435.336.176.577.382.722.618.145.23.217.496.217.801 0 .351-.095.668-.286.95-.183.283-.458.508-.824.676-.359.167-.809.251-1.35.251zM114.516 153.625c-.381 0-.725-.096-1.03-.287a2.092 2.092 0 01-.721-.8 2.409 2.409 0 01-.263-1.134v-5.459c0-.168.053-.305.16-.412a.558.558 0 01.412-.16c.168 0 .305.053.412.16.107.107.16.244.16.412v5.46c0 .304.084.56.252.766a.77.77 0 00.618.31h.39c.137 0 .251.052.343.16.099.106.148.243.148.411a.51.51 0 01-.194.412.704.704 0 01-.48.16zm-2.54-5.048a.551.551 0 01-.39-.137.448.448 0 01-.149-.343c0-.153.05-.275.15-.367a.551.551 0 01.388-.137h2.644c.16 0 .29.046.39.137.098.092.148.214.148.367 0 .137-.05.251-.149.343a.551.551 0 01-.389.137z" style="line-height:1.25;-inkscape-font-specification:'Comfortaa Bold';font-variant-ligatures:normal;font-variant-position:normal;font-variant-caps:normal;font-variant-numeric:normal;font-variant-alternates:normal;font-feature-settings:normal;text-indent:0;text-align:start;text-decoration-line:none;text-decoration-style:solid;text-decoration-color:#000;text-transform:none;text-orientation:mixed;white-space:normal;shape-padding:0;isolation:auto;mix-blend-mode:normal;solid-color:#000;solid-opacity:1" overflow="visible"/>
    </g>
    <text style="line-height:1.25" x="-10.535" y="-32.068" font-size="96.959" font-family="sans-serif" fill="#3c6eb4" stroke="#3c6eb4" stroke-width="2.424" transform="matrix(.11804 0 0 .11804 91.34 157.41)">
      <tspan x="-10.535" y="-32.068" style="-inkscape-font-specification:'Comfortaa Bold'" dx="15.816278 -8.2675991 -6.1108341 -1.437843" font-weight="700" font-family="Comfortaa" letter-spacing="-.043">nest</tspan>
    </text>
  </g>
  <path d="M122.16 156.23s-2.598-.098-4.213.416c-2.965.943-6.06 2.925-6.06 2.925" fill="none" stroke="#3c6eb4" stroke-width=".88608624" stroke-linecap="round"/>
  <path opacity=".69" fill="#f7b455" d="M62.541 158.249h1.949v.974h-1.949z"/>
</svg>
